<svg id="Layer_1" data-name="Layer 1" xmlns="http://www.w3.org/2000/svg" xmlns:xlink="http://www.w3.org/1999/xlink" viewBox="0 0 100 80"><defs><style>.cls-1{fill:#fff;}.cls-2{isolation:isolate;}.cls-3{fill:#2760ff;}.cls-4{fill:#e6efff;}.cls-5{mask:url(#mask);}.cls-6{fill:none;stroke:#000;stroke-linecap:round;stroke-width:2px;}.cls-7{fill:#fbfbfd;}.cls-8{fill:#d9e0f0;}.cls-9{fill:#1f53e4;}</style><mask id="mask" x="90" y="60" width="4" height="4" maskUnits="userSpaceOnUse"><g id="mask-2"><polygon id="path-1" class="cls-1" points="90 60 94 60 94 64 90 64 90 60"/></g></mask></defs><title>missing models</title><g id="_-copy-11" data-name="?-copy-11" class="cls-2"><g class="cls-2"><path class="cls-3" d="M64.63,7.92c2.06,0,3.45,1.22,3.45,2.92a3,3,0,0,1-1.64,2.67c-1,.59-1.29,1-1.29,1.8v.47H63.53v-.6A2.55,2.55,0,0,1,65,12.71c.94-.57,1.28-1,1.28-1.8a1.57,1.57,0,0,0-1.77-1.49,1.7,1.7,0,0,0-1.84,1.64H61.08C61.15,9.26,62.36,7.92,64.63,7.92ZM63.22,18.28a1.21,1.21,0,1,1,2.42,0,1.21,1.21,0,0,1-2.42,0Z"/></g></g><ellipse id="Oval-Copy-5" class="cls-4" cx="78.27" cy="23.28" rx="18.27" ry="18.28"/><ellipse id="Oval-Copy-6" class="cls-4" cx="16.27" cy="25.28" rx="16.27" ry="16.28"/><g id="_-copy-4" data-name="?-copy-4" class="cls-2"><g class="cls-2"><path class="cls-3" d="M86.9,4.92c2.5,0,4.18,1.48,4.18,3.54a3.62,3.62,0,0,1-2,3.24c-1.22.72-1.57,1.22-1.57,2.18v.57h-2v-.72a3.09,3.09,0,0,1,1.83-3c1.15-.69,1.55-1.23,1.55-2.19a1.89,1.89,0,0,0-2.14-1.8,2,2,0,0,0-2.23,2h-2C82.68,6.55,84.15,4.92,86.9,4.92ZM85.19,17.48a1.47,1.47,0,1,1,1.47,1.44A1.39,1.39,0,0,1,85.19,17.48Z"/></g></g><g id="_-copy-10" data-name="?-copy-10" class="cls-2"><g class="cls-2"><path class="cls-3" d="M93.63,25.92c2.06,0,3.45,1.22,3.45,2.92a3,3,0,0,1-1.64,2.67c-1,.59-1.29,1-1.29,1.8v.47H92.53v-.6A2.55,2.55,0,0,1,94,30.71c.94-.57,1.28-1,1.28-1.8a1.57,1.57,0,0,0-1.77-1.49,1.7,1.7,0,0,0-1.84,1.64H90.08C90.15,27.26,91.36,25.92,93.63,25.92ZM92.22,36.28a1.21,1.21,0,1,1,2.42,0,1.21,1.21,0,0,1-2.42,0Z"/></g></g><g id="_-copy-11-2" data-name="?-copy-11" class="cls-2"><g class="cls-2"><path class="cls-3" d="M64.63,7.92c2.06,0,3.45,1.22,3.45,2.92a3,3,0,0,1-1.64,2.67c-1,.59-1.29,1-1.29,1.8v.47H63.53v-.6A2.55,2.55,0,0,1,65,12.71c.94-.57,1.28-1,1.28-1.8a1.57,1.57,0,0,0-1.77-1.49,1.7,1.7,0,0,0-1.84,1.64H61.08C61.15,9.26,62.36,7.92,64.63,7.92ZM63.22,18.28a1.21,1.21,0,1,1,2.42,0,1.21,1.21,0,0,1-2.42,0Z"/></g></g><path id="Line-2-Copy-3" class="cls-3" d="M76.06,31.55a44.67,44.67,0,0,1-7.78,7.14,23.15,23.15,0,0,1-6,2.92,49.3,49.3,0,0,1-5.37,1.16l-.13-1.06a46.67,46.67,0,0,0,5.17-1.12,21.64,21.64,0,0,0,5.74-2.78,43.74,43.74,0,0,0,7.55-6.91l-3.35-2.6,9.7-4.66L79.48,34.2Z"/><path id="Shape" class="cls-3" d="M10.77,19.57a9.63,9.63,0,0,1-2.19-.26,8.68,8.68,0,0,1-5.36-4,8.86,8.86,0,0,1-1-6.68,8.65,8.65,0,0,1,4-5.36,8.84,8.84,0,0,1,6.67-1,8.61,8.61,0,0,1,5.35,4,8.82,8.82,0,0,1-3.07,12A9,9,0,0,1,10.77,19.57Zm0-15.82A7,7,0,0,0,4,9a7.56,7.56,0,0,0,.71,5.36,7,7,0,1,0,12.11-7.2A7.1,7.1,0,0,0,10.77,3.75Z"/><path id="Shape-Copy-4" class="cls-3" d="M59.83,72.66a3.83,3.83,0,1,1,3.82-3.83A3.84,3.84,0,0,1,59.83,72.66Zm0-6.7a2.87,2.87,0,1,0,2.86,2.87A2.81,2.81,0,0,0,59.83,66Z"/><g id="bf-dots-copy"><path id="Fill-27-Copy" class="cls-3" d="M85,60H72a2,2,0,0,0,0,4H85a2,2,0,0,0,0-4"/><g id="Group-31-Copy"><g class="cls-5"><path id="Fill-29" class="cls-3" d="M94,62a2,2,0,1,1-2-2,2,2,0,0,1,2,2"/></g></g></g><circle id="Oval-3" class="cls-6" cx="30" cy="48" r="28"/><circle id="Oval" class="cls-7" cx="30" cy="48" r="20"/><path id="Shape-2" data-name="Shape" class="cls-8" d="M27.9,69h-.1a19.66,19.66,0,0,1-3.24-.59,1.06,1.06,0,0,1,.54-2,16.87,16.87,0,0,0,2.92.53A1.06,1.06,0,0,1,27.9,69Zm5.25-.14a1.05,1.05,0,0,1-.17-2.1,19,19,0,0,0,2.89-.7A1,1,0,0,1,37,66.2,1,1,0,0,1,36.51,68a19.74,19.74,0,0,1-3.21.77ZM20.06,66.43a1.07,1.07,0,0,1-.53-.13,23.08,23.08,0,0,1-2.72-1.88,1.05,1.05,0,0,1,1.32-1.64,17.42,17.42,0,0,0,2.42,1.68,1.05,1.05,0,0,1-.52,2Zm20.83-.57a1,1,0,0,1-.58-1.93,18.82,18.82,0,0,0,2.35-1.81,1,1,0,0,1,1.48.07,1.05,1.05,0,0,1-.07,1.5,22.09,22.09,0,0,1-2.61,2,1,1,0,0,1-.58.16Zm-27-5a1,1,0,0,1-.84-.43,20.78,20.78,0,0,1-1.73-2.81,1.06,1.06,0,1,1,1.9-1,22.53,22.53,0,0,0,1.55,2.53,1,1,0,0,1,.18.79,1.08,1.08,0,0,1-.44.68A1,1,0,0,1,13.87,60.88ZM46.74,60a1,1,0,0,1-.88-1.62,18.67,18.67,0,0,0,1.41-2.6,1.06,1.06,0,0,1,.58-.56,1.08,1.08,0,0,1,.81,0,1.05,1.05,0,0,1,.53,1.39,22,22,0,0,1-1.57,2.9A1,1,0,0,1,46.74,60ZM10.49,53.31a1,1,0,0,1-1.05-.83A20.17,20.17,0,0,1,9,49.19a1.05,1.05,0,0,1,2.1-.08,18.21,18.21,0,0,0,.39,2.94,1,1,0,0,1-.78,1.26A.41.41,0,0,1,10.49,53.31Zm39.22-1.05h-.16a1.06,1.06,0,0,1-.88-1.21,18.73,18.73,0,0,0,.23-3,1.05,1.05,0,1,1,2.1,0,21.31,21.31,0,0,1-.25,3.28A1.06,1.06,0,0,1,49.71,52.26ZM10.47,45h-.21a1,1,0,0,1-.67-.45,1.07,1.07,0,0,1-.15-.8,22.82,22.82,0,0,1,.94-3.15,1,1,0,1,1,2,.74,17.89,17.89,0,0,0-.84,2.85A1,1,0,0,1,10.47,45Zm38.79-1.14a1.05,1.05,0,0,1-1-.78,18.28,18.28,0,0,0-1-2.8,1.06,1.06,0,0,1,.52-1.39,1.13,1.13,0,0,1,.81,0,1,1,0,0,1,.59.56,22,22,0,0,1,1,3.15,1.05,1.05,0,0,1-.65,1.29ZM13.83,37.4a1.07,1.07,0,0,1-.63-.2,1.06,1.06,0,0,1-.43-.69,1.08,1.08,0,0,1,.19-.78,23,23,0,0,1,2.1-2.52,1,1,0,0,1,.74-.31,1.06,1.06,0,0,1,.75,1.8A19.34,19.34,0,0,0,14.68,37,1,1,0,0,1,13.83,37.4Zm31.63-.92a1.05,1.05,0,0,1-.76-.39A19.92,19.92,0,0,0,42.6,34,1.05,1.05,0,0,1,44,32.41a22,22,0,0,1,2.28,2.35,1.06,1.06,0,0,1-.82,1.72ZM20,31.82a1,1,0,0,1-1-.8,1,1,0,0,1,.5-1.16,22.5,22.5,0,0,1,3-1.43,1,1,0,0,1,1,.16,1.06,1.06,0,0,1,.38,1,1,1,0,0,1-.66.82,18.87,18.87,0,0,0-2.68,1.29A1,1,0,0,1,20,31.82Zm19-.59a1.21,1.21,0,0,1-.47-.12A19.75,19.75,0,0,0,35.79,30a1,1,0,0,1-.62-.52,1,1,0,0,1,1.26-1.39,20.24,20.24,0,0,1,3,1.21,1.06,1.06,0,0,1,.48,1.14A1.08,1.08,0,0,1,39,31.23Zm-11.1-2a1.06,1.06,0,0,1-.12-2.11A21,21,0,0,1,31.05,27a1.09,1.09,0,0,1,.72,1.87,1,1,0,0,1-.77.28,21,21,0,0,0-3,.09Z"/><path id="Shape-3" data-name="Shape" class="cls-3" d="M37.41,46.41H31.59V40.59a1.59,1.59,0,1,0-3.18,0v5.82H22.59a1.59,1.59,0,1,0,0,3.18h5.82v5.82a1.59,1.59,0,0,0,3.18,0V49.59h5.82a1.59,1.59,0,0,0,0-3.18Z"/><path class="cls-9" d="M66.31,10.91c0,.79-.34,1.23-1.28,1.8a2.55,2.55,0,0,0-1.51,2.47v.6h1.62v-.47c0-.79.28-1.21,1.29-1.8a3,3,0,0,0,1.64-2.67,2.7,2.7,0,0,0-.91-2.06c-.45.35-.89.72-1.3,1.11A1.36,1.36,0,0,1,66.31,10.91Z"/><path class="cls-9" d="M64.43,17.07a1.15,1.15,0,0,0-1.21,1.21,1.21,1.21,0,1,0,1.21-1.21Z"/><path class="cls-9" d="M88.92,8.46a.22.22,0,0,1,0,.08c0,1-.4,1.5-1.55,2.19a3.09,3.09,0,0,0-1.83,3v.72h2v-.57c0-1,.35-1.46,1.57-2.18A4.07,4.07,0,0,0,90.76,10,17.79,17.79,0,0,0,88.92,8.46Z"/><path class="cls-9" d="M86.17,6.82a18.15,18.15,0,0,0-2.28-.93A3.82,3.82,0,0,0,82.6,8.72h2A2,2,0,0,1,86.17,6.82Z"/><path class="cls-9" d="M86.66,18.92a1.45,1.45,0,1,0-1.47-1.44A1.38,1.38,0,0,0,86.66,18.92Z"/><path class="cls-9" d="M93.63,25.92c-2.27,0-3.48,1.34-3.55,3.14H91.7a1.7,1.7,0,0,1,1.84-1.64,1.57,1.57,0,0,1,1.77,1.49c0,.79-.34,1.23-1.28,1.8a2.55,2.55,0,0,0-1.51,2.47v.6h.68a18.3,18.3,0,0,0,3-7A3.76,3.76,0,0,0,93.63,25.92Z"/><path class="cls-9" d="M75.22,30.9a43.74,43.74,0,0,1-7.55,6.91l-.25.16c.31.23.62.45.94.66a44.3,44.3,0,0,0,7.7-7.08l3.42,2.65,2.09-10.56-9.7,4.66Z"/><path class="cls-9" d="M14.37,16.85a7,7,0,0,1-9.65-2.47c-.07-.12-.12-.24-.18-.36a15.09,15.09,0,0,0-1.21,1.42,8.7,8.7,0,0,0,5.25,3.87,9.63,9.63,0,0,0,2.19.26,9,9,0,0,0,4.48-1.23,8.79,8.79,0,0,0,4.15-9,14.83,14.83,0,0,0-1.79-.24A7,7,0,0,1,14.37,16.85Z"/></svg>