<svg id="Layer_1" data-name="Layer 1" xmlns="http://www.w3.org/2000/svg" viewBox="0 0 100 80"><defs><style>.cls-1{fill:#2760ff;}.cls-2{fill:#e6efff;}.cls-3{fill:#1f53e4;}.cls-4{fill:#221f20;}</style></defs><title>illo-collaboration</title><circle class="cls-1" cx="10" cy="10" r="2"/><circle class="cls-2" cx="37" cy="40" r="34"/><path class="cls-1" d="M40,80a9,9,0,1,1,9-9A9,9,0,0,1,40,80Zm0-16a7,7,0,1,0,7,7A7,7,0,0,0,40,64Z"/><circle class="cls-1" cx="74.5" cy="40.5" r="21.5"/><path class="cls-3" d="M53,40.5A21.48,21.48,0,0,0,64.74,59.64a34,34,0,0,0,.53-38.53A21.47,21.47,0,0,0,53,40.5Z"/><path class="cls-1" d="M70,14a7,7,0,1,1,7-7A7,7,0,0,1,70,14ZM70,2a5,5,0,1,0,5,5A5,5,0,0,0,70,2Z"/><path class="cls-4" d="M90.68,52.22,90,51a20.17,20.17,0,0,1-2.4-9.53c0-3.61-2.28-6.42-6.57-8.11a29.7,29.7,0,0,0-10-1.74,15.8,15.8,0,0,0-8.36,2.11,14.59,14.59,0,0,0-2,1.45,13.49,13.49,0,0,0-3.54,5.08L55,24.32a18.9,18.9,0,0,0-8.81-13.73,20.68,20.68,0,0,0-11-2.76A39.2,39.2,0,0,0,22,10.12c-5.58,2.2-8.54,5.83-8.54,10.5a27.11,27.11,0,0,1-3.23,12.83l-.88,1.64a3.22,3.22,0,0,0,1.34,4.39,4.56,4.56,0,0,1,2.43,4.11c-.09,3.1.43,7.44,3.38,10.48,2.23,2.29,5.45,3.45,9.59,3.45a1,1,0,1,0,0-2c-3.58,0-6.32-1-8.15-2.84-2.47-2.54-2.9-6.32-2.83-9a6.54,6.54,0,0,0-3.49-5.93A1.21,1.21,0,0,1,11.15,36L12,34.4A29.2,29.2,0,0,0,15.5,20.62c0-8.52,12.42-10.79,19.76-10.79a18.7,18.7,0,0,1,9.91,2.47A16.91,16.91,0,0,1,53,24.58L54.71,37a13.43,13.43,0,0,0-5.26-5,9.92,9.92,0,0,0-8.6.18A48.66,48.66,0,0,1,25.33,36.5a1,1,0,0,0-.95,1c0,.24.29,5.74,4.65,9a12.51,12.51,0,0,0,7.7,2.31,24.3,24.3,0,0,0,5.6-.72L55.79,45,59.32,71.3a1,1,0,0,0,1,.87h.14A1,1,0,0,0,61.31,71l-3-22-.2-2.16A12.19,12.19,0,0,1,62,36.67a11.84,11.84,0,0,1,1.67-1.24A13.8,13.8,0,0,1,71,33.61c.59,0,14.59.09,14.59,7.85a22.08,22.08,0,0,0,2.64,10.47l.66,1.24a.7.7,0,0,1,0,.51.63.63,0,0,1-.33.4,5.16,5.16,0,0,0-2.76,4.68c.06,2-.25,4.76-2,6.61-1.33,1.37-3.33,2.06-6,2.06a1,1,0,0,0,0,2c3.18,0,5.67-.9,7.39-2.66,2.28-2.35,2.68-5.69,2.61-8.07a3.16,3.16,0,0,1,1.69-2.85,2.67,2.67,0,0,0,1.11-3.63Zm-48.81-6C36.86,47.42,33,47,30.25,45a10.55,10.55,0,0,1-3.75-6.57,53.11,53.11,0,0,0,15.16-4.35,8,8,0,0,1,6.92-.2c3.92,1.87,6.07,7,6.82,9.19Z"/></svg>