<svg id="Layer_1" data-name="Layer 1" xmlns="http://www.w3.org/2000/svg" xmlns:xlink="http://www.w3.org/1999/xlink" viewBox="0 0 120 80"><defs><style>.cls-1{fill:#fff;}.cls-2{fill:#2760ff;}.cls-3{fill:#e6efff;}.cls-4{mask:url(#mask);}.cls-5{fill:#fbfbfd;}.cls-6{fill:#d9e0f0;}.cls-7{mask:url(#mask-2-2);}</style><mask id="mask" x="20.08" y="45" width="4" height="4" maskUnits="userSpaceOnUse"><g id="mask-2"><polygon id="path-1" class="cls-1" points="20.08 45 24.08 45 24.08 49 20.08 49 20.08 45"/></g></mask><mask id="mask-2-2" x="77.08" y="56" width="23" height="24" maskUnits="userSpaceOnUse"><g id="mask-4"><polygon id="path-3" class="cls-1" points="77.08 56 100.08 56 100.08 80 77.08 80 77.08 56"/></g></mask></defs><title>add-files</title><path id="Shape" class="cls-2" d="M22.86,18.57a9.65,9.65,0,0,1-2.2-.26,8.66,8.66,0,0,1-5.35-4,8.86,8.86,0,0,1-1-6.68,8.69,8.69,0,0,1,4-5.36,8.84,8.84,0,0,1,6.67-1,8.63,8.63,0,0,1,5.36,4,8.84,8.84,0,0,1-3.08,12A9,9,0,0,1,22.86,18.57Zm0-15.82A7,7,0,0,0,16.1,8a7.56,7.56,0,0,0,.7,5.36,7,7,0,1,0,12.11-7.2A7.07,7.07,0,0,0,22.86,2.75Z"/><ellipse id="Oval" class="cls-3" cx="23.08" cy="46.28" rx="18.27" ry="18.28"/><path id="Fill-3-Copy" class="cls-3" d="M118.08,46.5A27.5,27.5,0,1,1,90.58,19a27.5,27.5,0,0,1,27.5,27.5"/><path id="document" d="M88,11.92s0,0,0-.05,0-.08,0-.15,0,0,0-.07l-.06-.11s0,0,0-.06,0-.07-.09-.09l0,0L76,1.26s-.05,0-.05,0,0,0-.06,0a.16.16,0,0,0-.09-.05l-.07,0L75.66,1,75.6,1a.68.68,0,0,0-.2,0H38.07a1,1,0,0,0-1,1V72.15a1,1,0,0,0,1,1h49a1,1,0,0,0,1-1v-60C88.06,12.05,88.06,12,88,11.92ZM76.37,4.19l8,7h-8Zm-37.31,67V3H74.41v9.12a1,1,0,0,0,1,1H86.1V71.2Z"/><path id="Shape-2" data-name="Shape" class="cls-2" d="M25.58,80a4.5,4.5,0,1,1,4.49-4.5A4.49,4.49,0,0,1,25.58,80Zm0-8.21a3.71,3.71,0,1,0,3.71,3.71A3.71,3.71,0,0,0,25.58,71.79Z"/><path id="Fill-27-Copy" class="cls-2" d="M15.08,45h-13a2,2,0,1,0,0,4h13a2,2,0,0,0,0-4"/><g id="Group-31-Copy"><g class="cls-4"><path id="Fill-29" class="cls-2" d="M24.08,47a2,2,0,1,1-2-2,2,2,0,0,1,2,2"/></g></g><path id="Shape-3" data-name="Shape" class="cls-2" d="M107.91,13.66a3.83,3.83,0,1,1,3.82-3.83A3.84,3.84,0,0,1,107.91,13.66Zm0-6.7a2.87,2.87,0,1,0,2.87,2.87A2.82,2.82,0,0,0,107.91,7Z"/><g id="icon-add-template"><g id="_circle_" data-name=" circle "><path id="Shape-4" data-name="Shape" class="cls-5" d="M80,41.1a15.11,15.11,0,0,0,.2-2.6.93.93,0,0,1,.93-.92,18.38,18.38,0,0,0-.36-2.78.74.74,0,0,1-.21,0,.93.93,0,0,1-.92-.68,15.44,15.44,0,0,0-.88-2.47.93.93,0,0,1,.44-1.19,17.68,17.68,0,0,0-1.47-2.34,1,1,0,0,1-.54.19.92.92,0,0,1-.69-.34,17,17,0,0,0-1.85-1.85.92.92,0,0,1-.09-1.27,18.2,18.2,0,0,0-2.27-1.55.94.94,0,0,1-.81.47.9.9,0,0,1-.42-.1,16.94,16.94,0,0,0-2.41-1,.91.91,0,0,1-.6-1.12,18,18,0,0,0-2.71-.51.93.93,0,0,1-.93.86,17.51,17.51,0,0,0-2.61.07h-.1a.93.93,0,0,1-.92-.79,18.67,18.67,0,0,0-2.68.64A.94.94,0,0,1,57.59,23a16,16,0,0,0-2.33,1.1A.9.9,0,0,1,54,23.79a16.44,16.44,0,0,0-2.21,1.7.93.93,0,0,1,0,1.26,18,18,0,0,0-1.72,2,.94.94,0,0,1-.75.39.87.87,0,0,1-.51-.17,17.34,17.34,0,0,0-1.31,2.44.91.91,0,0,1,.5,1.16,16.81,16.81,0,0,0-.74,2.51.91.91,0,0,1-.92.74h-.14A17.32,17.32,0,0,0,46,38.5a.93.93,0,0,1,.65.27.89.89,0,0,1,.27.65A16,16,0,0,0,47.28,42a.94.94,0,0,1-.68,1.08,17.12,17.12,0,0,0,.93,2.6.92.92,0,0,1,.71-.07.94.94,0,0,1,.54.46,17.54,17.54,0,0,0,1.37,2.23.87.87,0,0,1,.17.68.91.91,0,0,1-.37.61,16.25,16.25,0,0,0,1.9,2,.92.92,0,0,1,1.27-.14,16.62,16.62,0,0,0,2.14,1.48.92.92,0,0,1,.35,1.23,17,17,0,0,0,2.54,1.05.93.93,0,0,1,1.12-.62,15.08,15.08,0,0,0,2.57.47.93.93,0,0,1,.82,1h.92c.62,0,1.24,0,1.85-.11a.92.92,0,0,1,.77-1,18.41,18.41,0,0,0,2.54-.61.91.91,0,0,1,1.14.55,17.7,17.7,0,0,0,2.49-1.18.93.93,0,0,1,.29-1.25,17.76,17.76,0,0,0,2.07-1.59.93.93,0,0,1,1.29.05,17,17,0,0,0,1.77-2.11.92.92,0,0,1-.24-1.24,17.06,17.06,0,0,0,1.25-2.3A.91.91,0,0,1,80,44.79a15.82,15.82,0,0,0,.8-2.59.92.92,0,0,1-.6-.39A.94.94,0,0,1,80,41.1Z"/><path id="Shape-5" data-name="Shape" class="cls-6" d="M81.16,37.58a.93.93,0,0,0-.93.92,15.11,15.11,0,0,1-.2,2.6.92.92,0,0,0,.74,1H81a.92.92,0,0,0,.92-.78,17.25,17.25,0,0,0,.21-2.87v-.07A.91.91,0,0,0,81.16,37.58Z"/><path id="Shape-6" data-name="Shape" class="cls-6" d="M61.86,55.06a14.9,14.9,0,0,1-2.57-.47.93.93,0,0,0-1.12.62,1,1,0,0,0,.09.71,1,1,0,0,0,.57.43,17.22,17.22,0,0,0,2.85.52h0a.93.93,0,0,0,.93-.83h0A.92.92,0,0,0,61.86,55.06Z"/><path id="Shape-7" data-name="Shape" class="cls-6" d="M50.12,48.31a18.55,18.55,0,0,1-1.34-2.23.9.9,0,1,0-1.6.83,19.55,19.55,0,0,0,1.53,2.47.94.94,0,0,0,.74.38,1,1,0,0,0,.47-.16.91.91,0,0,0,.37-.61A.87.87,0,0,0,50.12,48.31Z"/><path id="Shape-8" data-name="Shape" class="cls-6" d="M47.3,42a17.24,17.24,0,0,1-.37-2.58.89.89,0,0,0-.27-.65A.93.93,0,0,0,46,38.5a.92.92,0,0,0-.88.92,17.48,17.48,0,0,0,.38,2.88.91.91,0,0,0,.92.73h.2A.92.92,0,0,0,47.3,42Z"/><path id="Shape-9" data-name="Shape" class="cls-6" d="M68.74,54.34A18.41,18.41,0,0,1,66.2,55a.92.92,0,0,0-.77,1,.94.94,0,0,0,.93.79h.14a18.38,18.38,0,0,0,2.82-.68.92.92,0,1,0-.58-1.74Z"/><path id="Shape-10" data-name="Shape" class="cls-6" d="M78.8,45.27a17.06,17.06,0,0,1-1.25,2.3A.9.9,0,0,0,78.49,49a1,1,0,0,0,.59-.4A19.12,19.12,0,0,0,80.46,46a.92.92,0,0,0,0-.71.94.94,0,0,0-.49-.51h0A.93.93,0,0,0,78.8,45.27Z"/><path id="Shape-11" data-name="Shape" class="cls-6" d="M74.73,50.87a17.76,17.76,0,0,1-2.07,1.59.93.93,0,0,0-.29,1.25.94.94,0,0,0,1.28.27A18.75,18.75,0,0,0,76,52.21a1,1,0,0,0,.31-.64A1,1,0,0,0,76,50.9.92.92,0,0,0,74.73,50.87Z"/><path id="Shape-12" data-name="Shape" class="cls-6" d="M55.26,52.93a16.62,16.62,0,0,1-2.14-1.48.9.9,0,0,0-1.47.79.93.93,0,0,0,.33.63,20.4,20.4,0,0,0,2.35,1.67.93.93,0,0,0,1.29-.32.91.91,0,0,0,.1-.72A.94.94,0,0,0,55.26,52.93Z"/><path id="Shape-13" data-name="Shape" class="cls-6" d="M74.68,26.09a16.16,16.16,0,0,1,1.85,1.85,1,1,0,0,0,.72.34.91.91,0,0,0,.54-.19.92.92,0,0,0,.13-1.29,18.1,18.1,0,0,0-2-2.1.92.92,0,0,0-1.3.07,1,1,0,0,0-.24.68A1,1,0,0,0,74.68,26.09Z"/><path id="Shape-14" data-name="Shape" class="cls-6" d="M78.77,31.66a15.69,15.69,0,0,1,.88,2.46.93.93,0,0,0,.93.69h.2a.93.93,0,0,0,.65-1.13,19.18,19.18,0,0,0-.93-2.77.9.9,0,0,0-.52-.49,1,1,0,0,0-1.21.53A.88.88,0,0,0,78.77,31.66Z"/><path id="Shape-15" data-name="Shape" class="cls-6" d="M68.68,22.65a14.89,14.89,0,0,1,2.41,1,1,1,0,0,0,.42.1.94.94,0,0,0,.81-.47,1,1,0,0,0,.07-.73.93.93,0,0,0-.48-.55,17.06,17.06,0,0,0-2.67-1.06.9.9,0,0,0-.7.05.9.9,0,0,0,.14,1.67Z"/><path id="Shape-16" data-name="Shape" class="cls-6" d="M54.76,24.23a.94.94,0,0,0,.46-.13A16.92,16.92,0,0,1,57.57,23a.89.89,0,1,0-.66-1.65,20.67,20.67,0,0,0-2.58,1.18.94.94,0,0,0-.43.56,1,1,0,0,0,.1.7A.93.93,0,0,0,54.76,24.23Z"/><path id="Shape-17" data-name="Shape" class="cls-6" d="M50.09,28.74a17.77,17.77,0,0,1,1.69-2,.91.91,0,0,0,0-1.26h0a.91.91,0,0,0-1.31,0,18.67,18.67,0,0,0-1.85,2.21A.91.91,0,0,0,48.78,29a.87.87,0,0,0,.51.17A.94.94,0,0,0,50.09,28.74Z"/><path id="Shape-18" data-name="Shape" class="cls-6" d="M61.73,22h.1a18.49,18.49,0,0,1,2.58-.1.93.93,0,0,0,.92-.85h0a.93.93,0,0,0-.92-.93,20,20,0,0,0-2.9.09.91.91,0,0,0-.7,1v.05A.92.92,0,0,0,61.73,22Z"/><path id="Shape-19" data-name="Shape" class="cls-6" d="M47.28,35.07A16.81,16.81,0,0,1,48,32.56a.91.91,0,0,0-1.7-.63,20.61,20.61,0,0,0-.82,2.78.91.91,0,0,0,.13.7.93.93,0,0,0,.59.4h.19A.91.91,0,0,0,47.28,35.07Z"/></g><path id="_plus_" data-name=" plus " class="cls-2" d="M70.67,37.59H65.5V32.41a1.42,1.42,0,0,0-2.83,0v5.18H57.5a1.41,1.41,0,1,0,0,2.82h5.17v5.18a1.42,1.42,0,0,0,2.83,0V40.41h5.17a1.41,1.41,0,0,0,0-2.82Z"/></g><g id="Group-3-Copy"><g class="cls-7"><path id="Fill-1" class="cls-2" d="M97.5,63.8,78.59,56.08a1.08,1.08,0,0,0-1.45,1.31l6.27,19a1.1,1.1,0,0,0,2,.21l2.12-3.5a1.1,1.1,0,0,1,1.74-.18l6.35,6.74a1.11,1.11,0,0,0,1.54.06l2.6-2.32a1.05,1.05,0,0,0,.07-1.5l-6.35-6.74a1,1,0,0,1,.33-1.67l3.77-1.76a1,1,0,0,0,0-1.93"/></g></g></svg>