<svg id="Layer_1" data-name="Layer 1" xmlns="http://www.w3.org/2000/svg" viewBox="0 0 120 80"><defs><style>.cls-1{fill:#2760ff;}.cls-2{fill:#e6efff;}.cls-3{fill:#fbfbfd;}.cls-4{fill:#d9e0f0;}</style></defs><title>illo-datasets</title><path class="cls-1" d="M14.48,76a9.53,9.53,0,0,1-9-6.45h0a9.5,9.5,0,1,1,12.05,5.94A9.59,9.59,0,0,1,14.48,76Zm-7.09-7.1a7.48,7.48,0,1,0,.37-5.73,7.45,7.45,0,0,0-.37,5.73Z"/><ellipse id="Oval" class="cls-2" cx="26.49" cy="29.46" rx="22.5" ry="22.52"/><circle id="Oval-2" data-name="Oval" class="cls-1" cx="95.99" cy="63.98" r="7"/><path class="cls-1" d="M17,23H30a2,2,0,0,1,0,4H17a2,2,0,1,1,0-4Z"/><circle class="cls-1" cx="9.99" cy="24.98" r="2"/><path class="cls-1" d="M100.48,16a6.45,6.45,0,0,1-4-1.38h0a6.49,6.49,0,1,1,4,1.38Zm-2.76-3a4.5,4.5,0,1,0-.78-6.32A4.51,4.51,0,0,0,97.72,13Z"/><path d="M81.69,18.23V2.45H23V60.61H38V76.4H96.14V18.23ZM25,58.61V4.45H79.69V18.23H38V58.61ZM94.14,74.4H40V20.23H94.14Z"/><g id="icon-add-template"><g id="_circle_" data-name=" circle "><path id="Shape" class="cls-3" d="M83.06,49.89a16.62,16.62,0,0,0,.2-2.54.9.9,0,0,1,.9-.9,19.28,19.28,0,0,0-.35-2.72.67.67,0,0,1-.2,0,.89.89,0,0,1-.9-.66,15.7,15.7,0,0,0-.86-2.41.91.91,0,0,1,.43-1.17,17.52,17.52,0,0,0-1.43-2.29.84.84,0,0,1-1.2-.14,16.19,16.19,0,0,0-1.8-1.81A.9.9,0,0,1,77.76,34a17.7,17.7,0,0,0-2.22-1.51.88.88,0,0,1-.78.46.86.86,0,0,1-.41-.1,16.08,16.08,0,0,0-2.35-1,.91.91,0,0,1-.58-1.1,18.33,18.33,0,0,0-2.64-.5.9.9,0,0,1-.9.84,16.65,16.65,0,0,0-2.55.07h-.09a.91.91,0,0,1-.91-.77,18.32,18.32,0,0,0-2.61.62.9.9,0,0,1-.52,1.14,16.25,16.25,0,0,0-2.27,1.08,1,1,0,0,1-.45.13.93.93,0,0,1-.76-.43,16.43,16.43,0,0,0-2.15,1.66.92.92,0,0,1,0,1.24,16.35,16.35,0,0,0-1.68,1.94.88.88,0,0,1-1.23.22,17.5,17.5,0,0,0-1.27,2.38.9.9,0,0,1,.49,1.14A14.67,14.67,0,0,0,51.16,44a.91.91,0,0,1-.9.72h-.14a17.81,17.81,0,0,0-.2,2.63.89.89,0,0,1,.63.27.91.91,0,0,1,.27.64,15.37,15.37,0,0,0,.33,2.53.91.91,0,0,1-.66,1.05,16.31,16.31,0,0,0,.9,2.54.9.9,0,0,1,.7-.06.88.88,0,0,1,.53.45A18.54,18.54,0,0,0,54,56.94a.94.94,0,0,1,.17.67,1,1,0,0,1-.36.6,15.43,15.43,0,0,0,1.85,1.94A.91.91,0,0,1,56.85,60a14.89,14.89,0,0,0,2.08,1.45.91.91,0,0,1,.34,1.2,17.34,17.34,0,0,0,2.48,1,.9.9,0,0,1,1.09-.62,14.28,14.28,0,0,0,2.5.46.91.91,0,0,1,.8,1H67c.6,0,1.2,0,1.8-.1a.91.91,0,0,1,.75-1,16.26,16.26,0,0,0,2.48-.59.88.88,0,0,1,1.1.54,16.91,16.91,0,0,0,2.43-1.16A.9.9,0,0,1,75.88,61a15.12,15.12,0,0,0,2-1.56.89.89,0,0,1,1.25.06,17,17,0,0,0,1.73-2.06.91.91,0,0,1-.24-1.22A16.31,16.31,0,0,0,81.86,54,.91.91,0,0,1,83,53.5,17.17,17.17,0,0,0,83.78,51a.88.88,0,0,1-.59-.39A.93.93,0,0,1,83.06,49.89Z"/><path id="Shape-2" data-name="Shape" class="cls-4" d="M84.16,46.45a.9.9,0,0,0-.9.9,16.62,16.62,0,0,1-.2,2.54.89.89,0,0,0,.72,1H84a.89.89,0,0,0,.9-.76,18.88,18.88,0,0,0,.21-2.81v-.07A.9.9,0,0,0,84.16,46.45Z"/><path id="Shape-3" data-name="Shape" class="cls-4" d="M65.36,63.54a14.11,14.11,0,0,1-2.5-.46.9.9,0,0,0-1.09.62.84.84,0,0,0,.09.69,11.9,11.9,0,0,0,3.32.92h.06a.9.9,0,0,0,.9-.81h0A.92.92,0,0,0,65.36,63.54Z"/><path id="Shape-4" data-name="Shape" class="cls-4" d="M53.93,56.94a17.13,17.13,0,0,1-1.31-2.17.9.9,0,0,0-1.17-.41.91.91,0,0,0-.39,1.21A17.67,17.67,0,0,0,52.55,58a.89.89,0,0,0,.72.37.85.85,0,0,0,.82-.75A.89.89,0,0,0,53.93,56.94Z"/><path id="Shape-5" data-name="Shape" class="cls-4" d="M51.18,50.77a15.33,15.33,0,0,1-.36-2.51.91.91,0,0,0-.27-.64.89.89,0,0,0-.63-.27.91.91,0,0,0-.86.91,17.88,17.88,0,0,0,.37,2.81.9.9,0,0,0,.9.71h.19A.91.91,0,0,0,51.18,50.77Z"/><path id="Shape-6" data-name="Shape" class="cls-4" d="M72.07,62.84a16.26,16.26,0,0,1-2.48.59.9.9,0,0,0,.15,1.78h.14a17.12,17.12,0,0,0,2.74-.67.9.9,0,0,0,.58-1.14A.89.89,0,0,0,72.07,62.84Z"/><path id="Shape-7" data-name="Shape" class="cls-4" d="M81.86,54a16.31,16.31,0,0,1-1.22,2.25.91.91,0,0,0,.24,1.22.89.89,0,0,0,1.25-.27,17.12,17.12,0,0,0,1.35-2.49.87.87,0,0,0,0-.69.92.92,0,0,0-.48-.51h0A.91.91,0,0,0,81.86,54Z"/><path id="Shape-8" data-name="Shape" class="cls-4" d="M77.9,59.44a15.12,15.12,0,0,1-2,1.56.88.88,0,1,0,1,1.48,18.6,18.6,0,0,0,2.25-1.72,1,1,0,0,0,.29-.63.89.89,0,0,0-.23-.66A.9.9,0,0,0,77.9,59.44Z"/><path id="Shape-9" data-name="Shape" class="cls-4" d="M58.93,61.46A14.89,14.89,0,0,1,56.85,60a.91.91,0,0,0-1.24.11,1,1,0,0,0-.2.67.87.87,0,0,0,.33.61A18.67,18.67,0,0,0,58,63a1,1,0,0,0,.69.11.91.91,0,0,0,.56-.42.93.93,0,0,0-.35-1.27Z"/><path id="Shape-10" data-name="Shape" class="cls-4" d="M77.85,35.21A17.08,17.08,0,0,1,79.65,37,.88.88,0,1,0,81,35.91a19,19,0,0,0-2-2,.9.9,0,0,0-1.5.73A.88.88,0,0,0,77.85,35.21Z"/><path id="Shape-11" data-name="Shape" class="cls-4" d="M81.83,40.67a14.6,14.6,0,0,1,.86,2.4.89.89,0,0,0,.9.67h.2a.89.89,0,0,0,.63-1.1,18.32,18.32,0,0,0-.9-2.71.89.89,0,0,0-.51-.48.87.87,0,0,0-.69,0,.92.92,0,0,0-.49.5A.94.94,0,0,0,81.83,40.67Z"/><path id="Shape-12" data-name="Shape" class="cls-4" d="M72,31.85a15.09,15.09,0,0,1,2.35,1,1,1,0,0,0,.41.1.9.9,0,0,0,.78-.46.91.91,0,0,0-.39-1.25,16.59,16.59,0,0,0-2.6-1,.87.87,0,0,0-.69,0,.94.94,0,0,0-.44.54A.9.9,0,0,0,72,31.85Z"/><path id="Shape-13" data-name="Shape" class="cls-4" d="M58.44,33.4a1,1,0,0,0,.45-.13,16.6,16.6,0,0,1,2.29-1.1.91.91,0,0,0,.52-1.1.9.9,0,0,0-1.16-.51A18.3,18.3,0,0,0,58,31.71a.87.87,0,0,0-.42.55.89.89,0,0,0,.09.68A.92.92,0,0,0,58.44,33.4Z"/><path id="Shape-14" data-name="Shape" class="cls-4" d="M53.89,37.81a16.1,16.1,0,0,1,1.65-1.94.9.9,0,0,0,0-1.24h0a.89.89,0,0,0-1.28,0,17.77,17.77,0,0,0-1.8,2.16.85.85,0,0,0,.66,1.39A.88.88,0,0,0,53.89,37.81Z"/><path id="Shape-15" data-name="Shape" class="cls-4" d="M65.24,31.17h.09a17.51,17.51,0,0,1,2.51-.1.9.9,0,0,0,.9-.83h0a.9.9,0,0,0-.9-.9,17.72,17.72,0,0,0-2.82.08.9.9,0,0,0-.69.94,0,0,0,0,1,0,0A.91.91,0,0,0,65.24,31.17Z"/><path id="Shape-16" data-name="Shape" class="cls-4" d="M51.16,44a14.67,14.67,0,0,1,.72-2.45.9.9,0,0,0-.49-1.14.87.87,0,0,0-.69,0,.94.94,0,0,0-.48.5,19.59,19.59,0,0,0-.8,2.71.93.93,0,0,0,.13.69.92.92,0,0,0,.57.39h.18A.9.9,0,0,0,51.16,44Z"/></g><path id="_plus_" data-name=" plus " class="cls-1" d="M73.94,46.46h-5V41.4a1.38,1.38,0,1,0-2.75,0v5.06h-5a1.38,1.38,0,0,0,0,2.76h5v5.06a1.38,1.38,0,1,0,2.75,0V49.22h5a1.38,1.38,0,0,0,0-2.76Z"/></g></svg>