<?xml version="1.0" encoding="utf-8"?>
<!-- Generator: Adobe Illustrator 21.1.0, SVG Export Plug-In . SVG Version: 6.00 Build 0)  -->
<svg version="1.1" id="Layer_1" xmlns="http://www.w3.org/2000/svg" xmlns:xlink="http://www.w3.org/1999/xlink" x="0px" y="0px"
	 viewBox="0 0 100 80" style="enable-background:new 0 0 100 80;" xml:space="preserve">
<style type="text/css">
	.st0{fill:#2760FF;}
	.st1{fill:#E6EFFF;}
	.st2{fill:#1F53E4;}
	.st3{fill:#221F20;}
</style>
<title>icon-search</title>
<path class="st0" d="M16,29h9c1.1,0,2,0.9,2,2l0,0c0,1.1-0.9,2-2,2h-9c-1.1,0-2-0.9-2-2l0,0C14,29.9,14.9,29,16,29z"/>
<circle class="st0" cx="10" cy="31" r="2"/>
<circle class="st0" cx="4" cy="31" r="2"/>
<circle class="st1" cx="72.2" cy="50.7" r="27.8"/>
<circle class="st0" cx="58.8" cy="31.5" r="17.5"/>
<path class="st2" d="M45.5,42.9c6.3,7.3,17.3,8.2,24.7,1.9c6.3-5.4,8-14.6,3.9-21.9c-0.6,0-1.2-0.1-1.8-0.1
	C59.8,22.9,49,31,45.5,42.9z"/>
<path class="st3" d="M58.8,61.4c-0.1,0-0.1,0-0.2,0c-8,0-15.5-3.2-21.1-8.9c-5.6-5.7-8.7-13.2-8.6-21.2c0-8,3.2-15.5,8.9-21.1
	C43.4,4.5,50.9,1.4,59,1.5c8,0,15.5,3.2,21.1,8.9c11.6,11.8,11.5,30.8-0.3,42.4C74.2,58.3,66.7,61.4,58.8,61.4z M58.8,3.5
	c-7.4,0-14.4,2.9-19.6,8.1l0,0c-5.3,5.2-8.3,12.2-8.3,19.7s2.8,14.5,8.1,19.8c5.2,5.3,12.2,8.3,19.7,8.3c0.1,0,0.1,0,0.2,0
	c7.4,0,14.4-2.9,19.6-8.1c11-10.8,11.1-28.6,0.2-39.5c-5.2-5.3-12.2-8.3-19.7-8.3C58.9,3.5,58.8,3.5,58.8,3.5z M38.4,10.9L38.4,10.9
	L38.4,10.9z"/>
<path class="st3" d="M58.8,54.2c0,0-0.1,0-0.1,0c-6.1,0-11.8-2.4-16-6.8c-8.8-8.9-8.7-23.4,0.2-32.2c8.9-8.8,23.4-8.7,32.2,0.2
	c4.3,4.3,6.6,10.1,6.6,16.1s-2.4,11.8-6.8,16C70.5,51.9,64.8,54.2,58.8,54.2z M43.5,16l0.7,0.7C36.1,24.7,36,37.9,44,46
	c8,8.1,21.2,8.2,29.3,0.2c3.9-3.9,6.1-9.1,6.2-14.6s-2.1-10.8-6-14.7c-8-8.1-21.2-8.2-29.3-0.2L43.5,16z"/>
<path class="st3" d="M67.2,24.2c-0.3,0-0.5-0.1-0.7-0.3c-2-2.1-4.7-3.2-7.6-3.2c0,0,0,0-0.1,0c-2.9,0-5.6,1.1-7.6,3.1
	c-0.4,0.4-1,0.4-1.4,0c-0.4-0.4-0.4-1,0-1.4c2.4-2.4,5.7-3.7,9.1-3.7c3.4,0,6.6,1.4,9,3.8c0.4,0.4,0.4,1,0,1.4
	C67.7,24.1,67.4,24.2,67.2,24.2z"/>
<path class="st3" d="M20.6,78.5c-2.4,0-4.8-0.9-6.7-2.8c-1.8-1.8-2.7-4.1-2.7-6.6c0-2.5,1-4.9,2.8-6.6l17.8-17.6
	c0.4-0.4,1-0.4,1.4,0c0.4,0.4,0.4,1,0,1.4L15.5,63.9c-1.4,1.4-2.2,3.2-2.2,5.2c0,2,0.7,3.8,2.1,5.2c2.9,2.9,7.5,2.9,10.4,0.1
	l17.8-17.6c0.4-0.4,1-0.4,1.4,0c0.4,0.4,0.4,1,0,1.4L27.2,75.8C25.4,77.6,23,78.5,20.6,78.5z"/>
<path class="st0" d="M90,79c-5,0-9-4-9-9s4-9,9-9s9,4,9,9S95,79,90,79z M90,63c-3.9,0-7,3.1-7,7s3.1,7,7,7s7-3.1,7-7S93.9,63,90,63z
	"/>
<path class="st0" d="M9,18c-5,0-9-4-9-9s4-9,9-9s9,4,9,9S14,18,9,18z M9,2C5.1,2,2,5.1,2,9s3.1,7,7,7s7-3.1,7-7S12.9,2,9,2z"/>
</svg>
