<svg id="Layer_1" data-name="Layer 1" xmlns="http://www.w3.org/2000/svg" xmlns:xlink="http://www.w3.org/1999/xlink" viewBox="0 0 100 80"><defs><style>.cls-1{fill:#fff;}.cls-2{fill:#e6efff;}.cls-3{isolation:isolate;}.cls-4{fill:#2760ff;}.cls-5{mask:url(#mask);}</style><mask id="mask" x="89" y="59" width="4" height="4" maskUnits="userSpaceOnUse"><g id="mask-2"><polygon id="path-1" class="cls-1" points="89 59 93 59 93 63 89 63 89 59"/></g></mask></defs><title>missing relationships</title><circle id="Oval-Copy-14" class="cls-2" cx="86" cy="17" r="10"/><circle id="Oval-Copy-15" class="cls-2" cx="25" cy="55" r="25"/><g id="_-copy-7" data-name="?-copy-7" class="cls-3"><g class="cls-3"><path class="cls-4" d="M60.16,27.63c2.07,0,3.46,1.23,3.46,2.92A3,3,0,0,1,62,33.23c-1,.59-1.3,1-1.3,1.79v.47H59.06V34.9a2.56,2.56,0,0,1,1.51-2.47c.95-.57,1.28-1,1.28-1.81a1.56,1.56,0,0,0-1.76-1.48,1.69,1.69,0,0,0-1.85,1.63H56.62A3.19,3.19,0,0,1,60.16,27.63ZM58.76,38A1.21,1.21,0,1,1,60,39.18,1.14,1.14,0,0,1,58.76,38Z"/></g></g><g id="_-copy-16" data-name="?-copy-16" class="cls-3"><g class="cls-3"><path class="cls-4" d="M72.16,38.63c2.07,0,3.46,1.23,3.46,2.92A3,3,0,0,1,74,44.23c-1,.59-1.3,1-1.3,1.79v.47H71.06V45.9a2.56,2.56,0,0,1,1.51-2.47c1-.57,1.28-1,1.28-1.81a1.56,1.56,0,0,0-1.76-1.48,1.69,1.69,0,0,0-1.85,1.63H68.62A3.19,3.19,0,0,1,72.16,38.63ZM70.76,49A1.21,1.21,0,1,1,72,50.18,1.14,1.14,0,0,1,70.76,49Z"/></g></g><g id="_-copy-17" data-name="?-copy-17" class="cls-3"><g class="cls-3"><path class="cls-4" d="M64.16,12.63c2.07,0,3.46,1.23,3.46,2.92A3,3,0,0,1,66,18.23c-1,.59-1.3,1-1.3,1.79v.47H63.06V19.9a2.56,2.56,0,0,1,1.51-2.47c1-.57,1.28-1,1.28-1.81a1.56,1.56,0,0,0-1.76-1.48,1.69,1.69,0,0,0-1.85,1.63H60.62A3.19,3.19,0,0,1,64.16,12.63ZM62.76,23A1.21,1.21,0,1,1,64,24.18,1.14,1.14,0,0,1,62.76,23Z"/></g></g><path id="Shape-Copy-3" class="cls-4" d="M17,20a8.54,8.54,0,0,1-2-.24,7.86,7.86,0,0,1-4.88-3.68A8,8,0,0,1,19,4.23a7.88,7.88,0,0,1,4.88,3.69,8,8,0,0,1-2.8,11A8.25,8.25,0,0,1,17,20ZM17,5.59a6.43,6.43,0,0,0-6.16,4.81,6.9,6.9,0,0,0,.64,4.88A6.43,6.43,0,0,0,22.53,8.72,6.48,6.48,0,0,0,17,5.59Z"/><path id="Shape-Copy-7" class="cls-4" d="M65.33,74.26a4,4,0,1,1,4-4A4,4,0,0,1,65.33,74.26Zm0-7a3,3,0,1,0,3,3A3,3,0,0,0,65.33,67.26Z"/><g id="bf-dots-copy-4"><path id="Fill-27-Copy" class="cls-4" d="M84,59H71a2,2,0,0,0,0,4H84a2,2,0,0,0,0-4"/><g id="Group-31-Copy"><g class="cls-5"><path id="Fill-29" class="cls-4" d="M93,61a2,2,0,1,1-2-2,2,2,0,0,1,2,2"/></g></g></g><path d="M30,79A25,25,0,1,1,55,54,25,25,0,0,1,30,79Zm0-48.09A23,23,0,1,0,53,54,23.05,23.05,0,0,0,30,30.91Z"/><path d="M89,20.92a10,10,0,1,1,10-10A10,10,0,0,1,89,20.92Zm0-18a8,8,0,1,0,8,8A8,8,0,0,0,89,2.92Z"/></svg>